M48
INCH,TZ
T01C.015
T02C.034
T03C.036
T04C.04
T05C.042
T06C.055
T07C.07
T08C.095
T09C.12
T10C.14
T11C.125
T12C.156
;LEADER: 12 
;HEADER: 
;CODE  : ASCII 
;FILE  : dev-1-4.drl for board dev.brd ... layers TOP and BOTTOM
;T01 Holesize 1. = 15.000000 Tolerance = +0.000000/-0.000000 PLATED MILS Quantity = 321
;T02 Holesize 2. = 34.000000 Tolerance = +0.000000/-0.000000 PLATED MILS Quantity = 2
;T03 Holesize 3. = 36.000000 Tolerance = +0.000000/-0.000000 PLATED MILS Quantity = 139
;T04 Holesize 4. = 40.000000 Tolerance = +0.000000/-0.000000 PLATED MILS Quantity = 8
;T05 Holesize 5. = 42.000000 Tolerance = +0.000000/-0.000000 PLATED MILS Quantity = 4
;T06 Holesize 6. = 55.000000 Tolerance = +0.000000/-0.000000 PLATED MILS Quantity = 4
;T07 Holesize 7. = 70.000000 Tolerance = +0.000000/-0.000000 PLATED MILS Quantity = 2
;T08 Holesize 8. = 95.000000 Tolerance = +0.000000/-0.000000 PLATED MILS Quantity = 6
;T09 Holesize 9. = 120.000000 Tolerance = +0.000000/-0.000000 PLATED MILS Quantity = 2
;T10 Holesize 10. = 140.000000 Tolerance = +0.000000/-0.000000 PLATED MILS Quantity = 3
;T11 Holesize 11. = 125.000000 Tolerance = +0.000000/-0.000000 NON_PLATED MILS Quantity = 6
;T12 Holesize 12. = 156.000000 Tolerance = +0.000000/-0.000000 NON_PLATED MILS Quantity = 4
%
G90
T01
X-12900Y-300
X-12900Y100
X-13300Y500
X-13300Y-300
X-13300Y100
X-12900Y500
X-8200Y-3829
X-8850Y-4620
X-8400Y-3000
X-9133Y-2600
X-9750Y-6000
X-9000Y2300
X-8400Y5600
X-8483Y6383
X-8600Y9617
X-8841Y16591
X-5350Y22250
X-5350Y23250
X-5350Y22750
X-3883Y22294
X-3700Y25000
X-4630Y25770
X-4630Y24230
X-4000Y24400
X-4000Y25600
X400Y26600
X-6500Y13379
X-3100Y13379
X-3200Y9100
X-2400Y6294
X-4110Y8500
X-5100Y10250
X-7700Y10300
X-5900Y10100
X-5900Y9000
X0Y9000
X-1000Y9000
X-1000Y9320
X0Y9320
X-500Y9000
X-8000Y2100
X-4410Y6700
X-4670Y7630
X-4700Y8130
X-2530Y5700
X-5900Y8200
X-4100Y6500
X-7600Y8633
X-5900Y7370
X-6200Y2650
X-4000Y7510
X-4000Y7870
X-2400Y8000
X700Y7100
X700Y7500
X400Y7300
X400Y7700
X-2500Y-3829
X-4000Y-3829
X-6000Y-3829
X-7700Y-1800
X-1250Y-5700
X-7100Y-4620
X-2800Y-4600
X-2700Y-2800
X-4100Y-3159
X-5383Y-2717
X-2530Y-1870
X-6000Y-1870
X-4850Y-4620
X1500Y-6000
X-750Y-6000
X-3000Y-6000
X-7500Y-6000
X6970Y-6600
X3250Y-3829
X3300Y-4650
X11900Y-1000
X9500Y-6000
X10867Y-706
X7300Y-4200
X7867Y-1567
X4883Y883
X7160Y260
X7867Y167
X9900Y7000
X9900Y7520
X11498Y3202
X8616Y6300
X10300Y5167
X11706Y5159
X9000Y6600
X10229Y1671
X7133Y1367
X8700Y8400
X5221Y9579
X10300Y2400
X9900Y5500
X8300Y7933
X10220Y3880
X10867Y6367
X11300Y12200
X11000Y12700
X11500Y11462
X10000Y12117
X10700Y11500
X7900Y11600
X9200Y20700
X9800Y20700
X10400Y20700
X11000Y20700
X9733Y25867
X6100Y28100
X16200Y21400
X17175Y23875
X13033Y22633
X15733Y25867
X20360Y21200
X14700Y23829
X15700Y24400
X15200Y21400
X16700Y21400
X21700Y13659
X21300Y12500
X20700Y12500
X19100Y12500
X12717Y15717
X17600Y15717
X14000Y11700
X15520Y11520
X21083Y14900
X18121Y13679
X20360Y20800
X17254Y2946
X12000Y3200
X12400Y10800
X16486Y5386
X16600Y2800
X16900Y4800
X15559Y5159
X15559Y6059
X13029Y1671
X14200Y1671
X15200Y8600
X16800Y9100
X19800Y2700
X21300Y11000
X15400Y10100
X12600Y1400
X14867Y2800
X18300Y1620
X13617Y2800
X15600Y3880
X12929Y3829
X12100Y6206
X18429Y3829
X21200Y3829
X18283Y10400
X21800Y4900
X17500Y-4600
X15500Y-5900
X19500Y-600
X18621Y-6421
X13500Y800
X14800Y700
X14800Y-200
X13400Y-1000
X13283Y-7117
X20721Y-8579
X18700Y-8579
X16133Y-5633
X21383Y-6017
X12900Y700
X22400Y-5400
X22600Y600
X24000Y-4300
X22600Y-4900
X24300Y-4900
X31821Y-8579
X29621Y-8579
X22721Y-8579
X23150Y-5800
X24650Y-5800
X25250Y-1800
X25633Y-6033
X27883Y-6017
X30925Y8480
X29305Y7750
X28130Y9941
X29100Y10200
X27333Y9545
X26348Y9545
X24750Y9549
X26500Y5900
X30100Y8600
X22500Y4700
X31167Y4300
X31117Y6171
X29200Y6171
X28804Y9341
X27890Y8400
X30000Y11000
X29891Y9433
X22900Y10950
X26800Y8775
X25175Y8775
X23600Y1620
X24650Y2150
X25250Y10750
X25750Y10750
X26250Y10750
X26750Y10750
X27250Y10750
X29650Y2150
X22200Y5400
X28900Y11100
X29150Y12050
X26700Y15817
X26500Y13921
X28031Y13600
X26229Y15229
X26229Y16500
X27700Y18900
X25761Y14500
X23100Y12600
X25559Y15200
X25400Y14300
X24000Y12833
X24000Y11100
X25100Y15817
X25559Y16500
X24300Y18900
X24700Y14600
X23539Y12600
X28900Y13400
X24700Y14070
X24000Y13531
X31933Y17367
X31917Y13117
X26750Y14995
X28550Y14732
X23500Y14725
X30200Y13600
X30300Y12050
X23225Y13600
X22300Y16717
X23000Y19200
X23000Y18840
X23000Y18480
X23000Y18100
X23000Y17740
X25250Y12750
X25750Y12750
X26250Y12750
X25250Y12250
X25750Y12250
X25250Y11750
X25750Y11750
X26250Y12250
X25250Y11250
X25750Y11250
X26750Y12250
X26750Y12750
X27250Y12750
X27250Y12250
X27250Y11750
X27250Y11250
X26250Y11750
X26250Y11250
X26750Y11250
X26750Y11750
X23000Y22200
X41700Y25200
X33500Y21200
X33900Y21200
X34300Y21200
X34700Y21200
X33800Y23000
X34000Y22600
X33200Y22600
X33600Y22600
X35867Y22400
X34433Y23267
X32521Y22600
X38000Y28341
X34500Y22470
X34500Y22870
X34134Y23566
X32700Y19975
X32700Y20500
X36800Y17700
X36500Y17400
X36200Y17100
X36800Y17100
X36700Y11829
X35167Y16133
X41091Y13409
X33989Y1100
X32625Y8480
X33100Y8000
X33200Y2000
X36000Y10500
X33400Y5500
X41000Y4600
X36567Y5067
X36567Y5967
X32383Y7100
X34000Y10700
X34400Y5500
X34800Y5500
X35400Y-4100
X41400Y-3500
X41400Y-3100
X37900Y-4000
X40500Y-4841
X33800Y-3700
X39300Y-4841
X39883Y-5283
X38200Y-5771
X35300Y-5771
X39800Y-8900
T02
X33600Y16250
X33600Y14250
T03
X-13750Y8750
X-13750Y7750
X-11000Y28750
X-10000Y28750
X-9000Y28750
X250Y28750
X1250Y28750
X-2500Y28750
X-1500Y28750
X-8000Y28750
X-6750Y20000
X-5250Y20000
X-6500Y17500
X-5500Y17500
X-4800Y14800
X-5800Y14800
X-2650Y18500
X-2650Y17500
X-2650Y16500
X-2650Y15500
X-1500Y11500
X750Y11500
X-4200Y12400
X-4200Y13400
X-1500Y10500
X750Y10500
X-4250Y3000
X-3250Y3000
X-4250Y750
X-3250Y750
X5500Y-8750
X4500Y-8750
X9500Y-7000
X8500Y-7000
X8500Y-8750
X9500Y-8750
X10500Y-8750
X11500Y-8750
X5500Y-5250
X5500Y-4250
X5500Y-3250
X11500Y-3750
X11500Y-2750
X8750Y14000
X9750Y14000
X9000Y27000
X8000Y27000
X3000Y28750
X4000Y28750
X5000Y28750
X6000Y28750
X8000Y28750
X9000Y28750
X10000Y28750
X11000Y28750
X15000Y27000
X14000Y27000
X14000Y28750
X15000Y28750
X16000Y28750
X17000Y28750
X21500Y28500
X21500Y27500
X21500Y26500
X19250Y28500
X19250Y27500
X19250Y26500
X19800Y15150
X18800Y15150
X15500Y-7000
X14500Y-7000
X14500Y-8750
X15500Y-8750
X16500Y-8750
X17500Y-8750
X21500Y-3750
X20500Y-3750
X19500Y-3750
X18500Y-3750
X17500Y-3750
X16500Y-3750
X15500Y-3750
X14500Y-3750
X13500Y-3750
X21500Y-2750
X20500Y-2750
X19500Y-2750
X18500Y-2750
X17500Y-2750
X16500Y-2750
X15500Y-2750
X14500Y-2750
X13500Y-2750
X12500Y-2750
X12500Y-3750
X24500Y-3750
X23500Y-3750
X22500Y-3750
X24500Y-2750
X23500Y-2750
X22500Y-2750
X25750Y7800
X25750Y6800
X30600Y21650
X29600Y21650
X30600Y22950
X29600Y22950
X31494Y24881
X23750Y28750
X24750Y28750
X25750Y28750
X26750Y28750
X27750Y28750
X23750Y26500
X24750Y26500
X25750Y26500
X26750Y26500
X27750Y26500
X38000Y24750
X38000Y23250
X34250Y24881
X33266Y24881
X32478Y24881
X37500Y13750
X36000Y13750
X37881Y17500
X37881Y18484
X37881Y19272
X37881Y20256
X36250Y1500
X35250Y2000
X36250Y-1500
X35250Y-1000
X36250Y-500
X35250Y0
X36250Y500
X35250Y1000
X42250Y-5600
X42250Y-6600
T04
X37890Y8900
X37890Y7890
X37100Y7890
X37100Y8900
X34700Y-7300
X37550Y-7300
X34700Y-9300
X37550Y-9300
T05
X40680Y1740
X40080Y2740
X40680Y-2240
X40080Y-1240
T06
X-11000Y-2250
X-11000Y-4250
X-11000Y4500
X-11000Y2500
T07
X37550Y3350
X37550Y-2850
T08
X30285Y25948
X38948Y21465
X35459Y25948
X38948Y16291
X38950Y10780
X38950Y6040
T09
X-12610Y15500
X-11430Y13650
T10
X-10250Y15500
X38750Y2500
X38750Y-2000
T11
X-14000Y-9000
X-14000Y29000
X14000Y13000
X14000Y7000
X42000Y-9000
X42000Y29000
T12
X250Y24000
X250Y-4000
X27250Y-4000
X27250Y24000
M30
