G04 ================== begin FILE IDENTIFICATION RECORD ==================*
G04 Layout Name:  C:/Users/batydm/Documents/Courses/Quad/trunk/pcb/dev.brd*
G04 Film Name:    Inner_ground*
G04 File Format:  Gerber RS274X*
G04 File Origin:  Cadence Allegro 16.2-s012*
G04 Origin Date:  Wed Mar 03 10:22:58 2010*
G04 *
G04 Layer:  VIA CLASS/INNER_GND*
G04 Layer:  PIN/INNER_GND*
G04 Layer:  ETCH/INNER_GND*
G04 *
G04 Offset:    (0.0000 0.0000)*
G04 Mirror:    No*
G04 Mode:      Positive*
G04 Rotation:  0*
G04 FullContactRelief:  No*
G04 UndefLineWidth:     6.0000*
G04 ================== end FILE IDENTIFICATION RECORD ====================*
%FSLAX55Y55*MOIN*%
%IR0*IPPOS*OFA0.00000B0.00000*MIA0B0*SFA1.00000B1.00000*%
%ADD16C,.05*%
%ADD21C,.07*%
%ADD18C,.061*%
%ADD10C,.025*%
%ADD20C,.09*%
%ADD22C,.064*%
%ADD12C,.055*%
%ADD11C,.028*%
%ADD14C,.075*%
%ADD19R,.061X.061*%
%ADD13C,.12*%
%ADD15C,.14*%
%ADD17C,.125*%
%ADD23C,.08*%
%ADD26C,.058*%
%ADD28C,.095*%
%ADD32R,.22X.22*%
%ADD30R,.101X.101*%
%ADD24R,.27X.28*%
%ADD31C,.104*%
%ADD25C,.115*%
%ADD27C,.18*%
%ADD29C,.165*%
G75*
%LPD*%
G75*
G36*
G01X-131000Y-5100D02*
G03X-126106Y-3187I2000J2100D01*
G01X-126094Y-3000D01*
X39000D01*
Y140000D01*
X-107106D01*
G03X-121494I-7194J-3500D01*
G01X-147000D01*
Y181000D01*
X-33000D01*
Y277000D01*
X-127000D01*
Y297000D01*
X407000D01*
Y277000D01*
X427000D01*
Y-52883D01*
G02X426282Y-53126I-400J0D01*
G03Y-58874I-3782J-2874D01*
G02X427000Y-59117I318J-242D01*
G01Y-62883D01*
G02X426282Y-63126I-400J0D01*
G03Y-68874I-3782J-2874D01*
G02X427000Y-69117I318J-242D01*
G01Y-77000D01*
X407000D01*
Y-97000D01*
X-127000D01*
Y-77000D01*
X-147000D01*
Y-3000D01*
X-135906D01*
X-135894Y-3187D01*
G03X-131000Y-5100I2894J187D01*
G37*
G36*
G01X-147000Y0D02*
Y50000D01*
X-43000D01*
Y64314D01*
X-42884Y64367D01*
G03Y69633I-1216J2633D01*
G01X-43000Y69686D01*
Y82061D01*
G02X-42418Y82417I400J0D01*
G03Y87583I1318J2583D01*
G02X-43000Y87939I-182J356D01*
G01Y118885D01*
G02X-42553Y119282I400J0D01*
G03X-37485Y125476I553J4718D01*
G02X-37105Y126000I380J124D01*
G01X-34000D01*
Y137000D01*
X36000D01*
Y0D01*
X-125755D01*
G02X-126148Y473I0J400D01*
G03X-126900Y3000I-2852J527D01*
G03X-131000Y7100I-2100J2000D01*
G03X-135100Y3000I-2000J-2100D01*
G03X-135852Y473I2100J-2000D01*
G02X-136245Y0I-393J-73D01*
G01X-147000D01*
G37*
G36*
G01X-46473Y84152D02*
G03X-48753Y78990I-527J-2852D01*
G02X-48717Y78384I-242J-319D01*
G03X-46436Y73412I2017J-2084D01*
G02X-46000Y73014I36J-398D01*
G01Y69193D01*
X-46065Y69133D01*
G03Y64867I1965J-2133D01*
G01X-46000Y64807D01*
Y53000D01*
X-147000D01*
Y137000D01*
X-122699D01*
G02X-122299Y136595I0J-400D01*
G03X-106301I7999J-95D01*
G02X-105901Y137000I400J5D01*
G01X-37000D01*
Y129000D01*
X-46000D01*
Y126562D01*
X-46030Y126514D01*
G03Y121486I4030J-2514D01*
G01X-46000Y121438D01*
Y84545D01*
G02X-46473Y84152I-400J0D01*
G37*
G36*
G01X-147000Y184000D02*
Y274000D01*
X-36000D01*
Y184000D01*
X-147000D01*
G37*
%LPC*%
G75*
G36*
G01X100636Y205792D02*
G02Y208208I-2636J1208D01*
G03X101364I364J167D01*
G02X106636I2636J-1208D01*
G03X107364I364J167D01*
G02Y205792I2636J-1208D01*
G03X106636I-364J-167D01*
G02X101364I-2636J1208D01*
G03X100636I-364J-167D01*
G37*
G36*
G01X62949Y283776D02*
G03X62931Y283164I248J-314D01*
G02X58508Y282484I-1931J-2164D01*
G03X58307Y283062I-344J205D01*
G02X62949Y283776I1693J4438D01*
G37*
G36*
G01X334971Y228711D02*
G03X335214Y229196I-142J374D01*
G02X340786I2786J804D01*
G03X341029Y228711I384J-111D01*
G02X338000Y223900I-1029J-2711D01*
G02X334000I-2000J2100D01*
G02Y228100I-2000J2100D01*
G02X334971Y228711I2000J-2100D01*
G37*
G36*
G01X164803Y212107D02*
G03X164197I-303J-261D01*
G02Y215893I-2197J1893D01*
G03X164803I303J261D01*
G02Y212107I2197J-1893D01*
G37*
G36*
G01X341000Y209900D02*
G02X337000I-2000J2100D01*
G02Y214100I-2000J2100D01*
G02X341000I2000J-2100D01*
G02X345000I2000J-2100D01*
G02Y209900I2000J-2100D01*
G02X341000I-2000J2100D01*
G37*
G36*
G01X201500Y210000D02*
G02X205700I2100J2000D01*
G02X201500I-2100J-2000D01*
G37*
G36*
G01X328757Y202693D02*
G03Y202057I242J-318D01*
G02X325243I-1757J-2307D01*
G03Y202693I-242J318D01*
G02X328757I1757J2307D01*
G37*
G36*
G01X361908Y173899D02*
G03X362101Y174092I-6J200D01*
G02X364908Y176899I2899J-92D01*
G03X365101Y177092I-6J200D01*
G02X369208Y174364I2899J-92D01*
G03Y173636I167J-364D01*
G02X365364Y169792I-1208J-2636D01*
G03X364636I-364J-167D01*
G02X361908Y173899I-2636J1208D01*
G37*
G36*
G01X254820Y145782D02*
G02X256793Y142218I2793J-782D01*
G02X254820Y145782I-2793J782D01*
G37*
G36*
G01X248731Y143673D02*
G03Y143031I239J-321D01*
G02X245269I-1731J-2327D01*
G03Y143673I-239J321D01*
G02X248731I1731J2327D01*
G37*
G36*
G01X233336Y123952D02*
G03X233053I-142J-141D01*
G02Y128048I-2053J2048D01*
G03X233336I142J141D01*
G02X236602Y128635I2053J-2048D01*
G03X237161Y128917I167J363D01*
G02X238788Y125692I2839J-590D01*
G03X238229Y125410I-167J-363D01*
G02X233336Y123952I-2839J590D01*
G37*
G36*
G01X142886Y119000D02*
G03X142536Y118406I0J-400D01*
G02X137464I-2536J-1406D01*
G03X137114Y119000I-350J194D01*
G01X129000D01*
Y141000D01*
X151000D01*
Y119000D01*
X142886D01*
G37*
G36*
G01X375089Y74935D02*
G03X374811I-139J-144D01*
G02X368156Y83608I-3811J3965D01*
G03Y84292I-207J342D01*
G02X373844I2844J4708D01*
G03Y83608I207J-342D01*
G02X374811Y82865I-2844J-4708D01*
G03X375089I139J144D01*
G02Y74935I3811J-3965D01*
G37*
G36*
G01X100786Y72915D02*
G03Y72285I246J-315D01*
G02X97214I-1786J-2285D01*
G03Y72915I-246J315D01*
G02X100786I1786J2285D01*
G37*
G36*
G01X89518Y63140D02*
G03X89053Y62777I-66J-394D01*
G02X86643Y65860I-2891J223D01*
G03X87109Y66223I66J394D01*
G02X89518Y63140I2891J-223D01*
G37*
G36*
G01X101898Y54906D02*
G03X102383Y54502I400J-13D01*
G02X100102Y51762I617J-2834D01*
G03X99617Y52166I-400J13D01*
G02X101898Y54906I-617J2834D01*
G37*
G36*
G01X117193Y33894D02*
G03X117802Y33892I305J258D01*
G02X117787Y30126I2198J-1891D01*
G03X117178Y30129I-305J-258D01*
G02X117193Y33894I-2198J1891D01*
G37*
G36*
G01X411900Y-33000D02*
G02X416100I2100J2000D01*
G02X411900I-2100J-2000D01*
G37*
G36*
G01X239287Y-39547D02*
G03X239690Y-40117I361J-172D01*
G02X240310I310J-2883D01*
G03X240713Y-39547I43J398D01*
G02X243370Y-41962I4287J2047D01*
G03X242841Y-42418I-137J-376D01*
G02X237159I-2841J-582D01*
G03X236630Y-41962I-392J80D01*
G02X239287Y-39547I-1630J4462D01*
G37*
G36*
G01X226678Y-51820D02*
G03X226436Y-52426I94J-389D01*
G02X223322Y-51180I-2436J-1574D01*
G03X223564Y-50574I-94J389D01*
G02X226678Y-51820I2436J1574D01*
G37*
G36*
G01X328415Y245753D02*
G02Y251877I-3631J3062D01*
G03X329026I306J258D01*
G02X337197Y250215I3631J-3062D01*
G03X337961I382J118D01*
G02Y247415I4539J-1400D01*
G03X337197I-382J-118D01*
G02X329026Y245753I-4539J1400D01*
G03X328415I-306J-258D01*
G37*
G36*
G01X380215Y179539D02*
G02X377415I-1400J-4539D01*
G03Y180303I-118J382D01*
G02X375753Y188474I1400J4539D01*
G03Y189085I-258J306D01*
G02X381877I3062J3631D01*
G03Y188474I258J-306D01*
G02X380215Y180303I-3062J-3631D01*
G03Y179539I118J-382D01*
G37*
G36*
G01X209636Y123792D02*
G02Y126208I-2636J1208D01*
G03X210364I364J167D01*
G02Y123792I2636J-1208D01*
G03X209636I-364J-167D01*
G37*
G36*
G01X112847Y124896D02*
G02X110517Y123498I153J-2896D01*
G03X110153Y124104I-343J207D01*
G02X112483Y125502I-153J2896D01*
G03X112847Y124896I343J-207D01*
G37*
G36*
G01X131821Y6329D02*
G02X131451Y8550I-2821J671D01*
G03X132179Y8671I338J214D01*
G02X132549Y6450I2821J-671D01*
G03X131821Y6329I-338J-214D01*
G37*
G36*
G01X395323Y29450D02*
G03X396037Y29487I348J198D01*
G02X397067Y23780I4763J-2087D01*
G03X396385Y23565I-287J-278D01*
G02X378755Y27129I-8885J1435D01*
G03X378201Y27588I-389J95D01*
G02X381974Y32914I-2701J5912D01*
G03X382590Y32543I398J-36D01*
G02X395323Y29450I4910J-7543D01*
G37*
G36*
G01X382590Y-27543D02*
G03X381974Y-27914I-218J-335D01*
G02X378201Y-22588I-6474J-586D01*
G03X378755Y-22129I166J364D01*
G02X382590Y-27543I8745J2129D01*
G37*
G36*
G01X-7197Y88107D02*
G03X-7803I-303J-261D01*
G02X-12419Y91600I-2197J1893D01*
G02X-7120Y92861I2419J1600D01*
G03X-6514Y92474I397J-47D01*
G02X-3486I1514J-2474D01*
G03X-2880Y92861I209J341D01*
G02X2419Y91600I2880J339D01*
G02X-2197Y88107I-2419J-1600D01*
G03X-2803I-303J-261D01*
G02X-7197I-2197J1893D01*
G37*
G36*
G01X-23627Y59369D02*
G02X-25830Y59851I-1673J-2369D01*
G03X-25673Y60571I-73J393D01*
G02X-23470Y60089I1673J2369D01*
G03X-23627Y59369I73J-393D01*
G37*
G54D26*
X-88500Y-46200D03*
X-91332Y-26000D03*
X-84000Y-30000D03*
X-82000Y-38288D03*
X-71000Y-46200D03*
X-60000Y-38288D03*
Y-18700D03*
X-77000Y-18000D03*
X-41000Y-31590D03*
X-40000Y-38288D03*
X-53832Y-27168D03*
X-28000Y-46000D03*
X-25000Y-38288D03*
X-12500Y-57000D03*
X-27000Y-28000D03*
X-25300Y-18700D03*
X4000Y266000D03*
X32500Y-38288D03*
X33000Y-46500D03*
X69700Y-66000D03*
X73000Y-42000D03*
X78668Y1668D03*
X83000Y79331D03*
X95000Y-60000D03*
X108668Y-7060D03*
X119000Y-10000D03*
X102288Y16712D03*
X103000Y24000D03*
X102200Y38800D03*
X117058Y51590D03*
X108668Y63668D03*
X121000Y62060D03*
X134000Y-10000D03*
X148000Y-2000D03*
X142000Y16712D03*
X130288D03*
X148000Y7000D03*
X129288Y38288D03*
X124000Y108000D03*
X127168Y157168D03*
X147000Y238288D03*
X155000Y-59000D03*
X175000Y-46000D03*
X172540Y29460D03*
X166000Y28000D03*
X156000Y38800D03*
X155590Y60590D03*
X164860Y53860D03*
X169000Y48000D03*
X155590Y51590D03*
X152000Y86000D03*
X176000Y157168D03*
X152000Y214000D03*
X157000Y244000D03*
X186212Y-64212D03*
X195000Y-6000D03*
X184288Y38288D03*
X182832Y104000D03*
X191000Y125000D03*
X213832Y-60168D03*
X226000Y6000D03*
X212000Y38288D03*
X225000Y47000D03*
X218000Y49000D03*
X222000Y54000D03*
X240000Y111000D03*
X217000Y136590D03*
X240000Y135307D03*
X230000Y222000D03*
X256332Y-60332D03*
X243000Y-49000D03*
X265000Y59000D03*
X263484Y95450D03*
X247500Y95493D03*
X265000Y139207D03*
X255590Y165000D03*
X267000Y158168D03*
X251000D03*
X255590Y152000D03*
X262288Y152288D03*
Y165000D03*
X243000Y189000D03*
X278832Y-60168D03*
X296500Y21500D03*
X293050Y77500D03*
X301000Y86000D03*
X289000Y111000D03*
X291000Y102000D03*
X281300Y99408D03*
X291500Y120500D03*
X273327Y95450D03*
X289000Y134000D03*
X280307Y136000D03*
X277000Y189000D03*
X326250Y84800D03*
X331000Y80000D03*
X309250Y84800D03*
X354000Y-41000D03*
X353000Y-57712D03*
X339892Y11000D03*
X332000Y20000D03*
X334000Y55000D03*
X360000Y105000D03*
X379000Y-40000D03*
X382000Y-57712D03*
X365668Y59668D03*
Y50668D03*
X398000Y-89000D03*
X410000Y46000D03*
X417000Y252000D03*
X-90000Y23000D03*
X-80000Y21000D03*
X-32000Y91000D03*
X-59000Y90000D03*
Y82000D03*
Y101000D03*
X-77000Y103000D03*
X-51000Y102500D03*
G54D28*
X-100000Y287500D03*
X-90000D03*
X-58000Y148000D03*
X-65000Y175000D03*
X-80000Y287500D03*
X-48000Y148000D03*
X-55000Y175000D03*
X-26500D03*
Y165000D03*
Y155000D03*
Y185000D03*
X-15000Y287500D03*
X12500D03*
X55000Y-87500D03*
X45000D03*
X55000Y-52500D03*
Y-42500D03*
Y-32500D03*
X40000Y287500D03*
X50000D03*
X85000Y-70000D03*
X87500Y140000D03*
X90000Y270000D03*
X80000D03*
X90000Y287500D03*
X95000Y-87500D03*
X105000D03*
X115000D03*
X95000Y-70000D03*
X100000Y287500D03*
X110000D03*
X145000Y-70000D03*
X125000Y-37500D03*
Y-27500D03*
X135000D03*
X145000D03*
X135000Y-37500D03*
X145000D03*
X150000Y270000D03*
X140000D03*
X150000Y287500D03*
X155000Y-87500D03*
X165000D03*
X175000D03*
X155000Y-70000D03*
Y-27500D03*
X165000D03*
X175000D03*
X155000Y-37500D03*
X165000D03*
X175000D03*
X160000Y287500D03*
X170000D03*
X185000Y-27500D03*
X195000D03*
X205000D03*
X185000Y-37500D03*
X195000D03*
X205000D03*
X198000Y151500D03*
X192500Y265000D03*
Y285000D03*
X215000Y-27500D03*
X225000D03*
X235000D03*
X215000Y-37500D03*
X225000D03*
X215000Y265000D03*
Y285000D03*
X245000Y-27500D03*
X257500Y78000D03*
X247500Y265000D03*
X257500D03*
X267500D03*
X247500Y287500D03*
X257500D03*
X267500D03*
X296000Y216500D03*
Y229500D03*
X277500Y265000D03*
Y287500D03*
X306000Y216500D03*
Y229500D03*
X362500Y-15000D03*
X352500Y-10000D03*
X362500Y-5000D03*
X352500Y0D03*
X362500Y5000D03*
X352500Y10000D03*
X362500Y15000D03*
X352500Y20000D03*
X336000Y142500D03*
Y162500D03*
X375000Y137500D03*
X380000Y247500D03*
X-42500Y30000D03*
Y7500D03*
X-15000Y105000D03*
X7500D03*
X-137500Y77500D03*
X-67500Y200000D03*
G54D32*
X140000Y70000D03*
G54D30*
X347000Y-73000D03*
X375500D03*
G54D24*
X2500Y-40000D03*
Y240000D03*
X272500Y-40000D03*
Y240000D03*
G54D31*
X406800Y-22400D03*
X400800Y-12400D03*
X406800Y17400D03*
G54D25*
X-110000Y-42500D03*
Y-22500D03*
Y25000D03*
G54D27*
X-102500Y155000D03*
G54D29*
X302854Y259484D03*
X354587D03*
X389500Y60400D03*
Y107800D03*
X389484Y162913D03*
Y214646D03*
%LPD*%
G75*
G54D10*
X-140000Y-90000D03*
Y290000D03*
X140000Y70000D03*
Y130000D03*
X420000Y-90000D03*
Y290000D03*
G54D11*
X-133000Y1000D03*
Y-3000D03*
X-129000Y1000D03*
Y-3000D03*
Y5000D03*
X-133000D03*
X-97500Y-60000D03*
X-88500Y-46200D03*
X-91332Y-26000D03*
X-90000Y23000D03*
X-88410Y165910D03*
X-75000Y-60000D03*
X-84000Y-30000D03*
X-82000Y-38288D03*
X-71000Y-46200D03*
X-60000Y-38288D03*
Y-18700D03*
X-77000Y-18000D03*
X-80000Y21000D03*
X-62000Y26500D03*
X-84000Y56000D03*
X-59000Y90000D03*
X-76000Y86332D03*
X-59000Y82000D03*
X-84832Y63832D03*
X-59000Y73700D03*
Y101000D03*
X-77000Y103000D03*
X-86000Y96168D03*
X-65000Y133788D03*
X-30000Y-60000D03*
X-48500Y-46200D03*
X-41000Y-31590D03*
X-40000Y-38288D03*
X-53832Y-27168D03*
X-41000Y65000D03*
X-40000Y78700D03*
X-46700Y76300D03*
X-32000Y91000D03*
X-47000Y81300D03*
X-41100Y85000D03*
X-40000Y75100D03*
X-44100Y67000D03*
X-51000Y102500D03*
X-31000Y133788D03*
X-53500Y222500D03*
Y232500D03*
Y227500D03*
X-38832Y222940D03*
X-37000Y250000D03*
X-46300Y257700D03*
Y242300D03*
X-40000Y244000D03*
Y256000D03*
X-7500Y-60000D03*
X-28000Y-46000D03*
X-25000Y-38288D03*
X-12500Y-57000D03*
X-27000Y-28000D03*
X-25300Y-18700D03*
Y57000D03*
X-24000Y80000D03*
Y62940D03*
X-10000Y90000D03*
X-5000D03*
X0D03*
Y93200D03*
X-10000D03*
X15000Y-60000D03*
X7000Y75000D03*
X4000Y77000D03*
X7000Y71000D03*
X4000Y73000D03*
Y266000D03*
X32500Y-38288D03*
X33000Y-46500D03*
X48832Y8832D03*
X52212Y95788D03*
X61000Y281000D03*
X69700Y-66000D03*
X73000Y-42000D03*
X78668Y-15668D03*
Y1668D03*
X71600Y2600D03*
X71332Y13668D03*
X83000Y79331D03*
X90000Y66000D03*
X86161Y63000D03*
X87000Y84000D03*
X79000Y116000D03*
X95000Y-60000D03*
X108668Y-7060D03*
X119000Y-10000D03*
X102288Y16712D03*
X103000Y24000D03*
X102200Y38800D03*
X103000Y51668D03*
X114980Y32020D03*
X99000Y55000D03*
X120000Y32000D03*
X117058Y51590D03*
X108668Y63668D03*
X121000Y62060D03*
X99000Y75200D03*
Y70000D03*
X107000Y115000D03*
X100000Y121168D03*
X115000Y114621D03*
X110000Y127000D03*
X113000Y122000D03*
X110000Y207000D03*
X104000D03*
X98000D03*
X97332Y258668D03*
X132832Y-71168D03*
X134000Y-10000D03*
X148000Y-2000D03*
X136168Y28000D03*
X142000Y16712D03*
X148668Y28000D03*
X126000Y14000D03*
X135000Y8000D03*
X130288Y16712D03*
X129000Y7000D03*
X148000D03*
X129288Y38288D03*
X140000Y117000D03*
X124000Y108000D03*
X127168Y157168D03*
X147000Y238288D03*
X130332Y226332D03*
X155000Y-59000D03*
X161332Y-56332D03*
X175000Y-46000D03*
X172540Y29460D03*
X166000Y28000D03*
X156000Y38800D03*
X155590Y60590D03*
X164860Y53860D03*
X169000Y48000D03*
X155590Y51590D03*
X168000Y91000D03*
X152000Y86000D03*
X155200Y115200D03*
X154000Y101000D03*
X181212Y136788D03*
X176000Y157168D03*
X162000Y214000D03*
X171750Y238750D03*
X152000Y214000D03*
X167000D03*
X157332Y258668D03*
X157000Y244000D03*
X186212Y-64212D03*
X187000Y-85788D03*
X207212D03*
X195000Y-6000D03*
X198000Y27000D03*
X183000Y16200D03*
X184288Y38288D03*
X182832Y104000D03*
X207000Y125000D03*
X191000D03*
X210832Y149000D03*
X203600Y208000D03*
Y212000D03*
X213832Y-60168D03*
X227212Y-85788D03*
X224000Y-54000D03*
X240000Y-43000D03*
X226000Y-49000D03*
X231500Y-58000D03*
X236000Y16200D03*
X226000Y6000D03*
X212000Y38288D03*
X225000Y47000D03*
X218000Y49000D03*
X222000Y54000D03*
X240000Y111000D03*
X213000Y110000D03*
X229000Y109500D03*
X235000Y147250D03*
X231000Y126000D03*
X217000Y136590D03*
X240000Y135307D03*
X235390Y126000D03*
X232250Y136000D03*
X240000Y128327D03*
X213000Y125000D03*
X230000Y181000D03*
X223000Y167168D03*
X230000Y177400D03*
Y184800D03*
Y188400D03*
Y192000D03*
Y222000D03*
X256332Y-60332D03*
X246500Y-58000D03*
X243000Y-49000D03*
X252500Y-18000D03*
X246500Y21500D03*
X265000Y59000D03*
X251750Y87750D03*
X268000D03*
X262500Y107500D03*
X267500Y117500D03*
X257500D03*
Y107500D03*
X252500Y112500D03*
X257500D03*
X252500Y107500D03*
Y117500D03*
X262500Y112500D03*
X267500D03*
X263484Y95450D03*
X267500Y107500D03*
X262500Y117500D03*
X247500Y95493D03*
X267500Y149950D03*
X257500Y127500D03*
X267500Y122500D03*
Y127500D03*
X252500Y122500D03*
X257500D03*
X262500D03*
X252500Y127500D03*
X262500D03*
X254000Y143000D03*
X257613Y145000D03*
X247000Y146000D03*
X265000Y139207D03*
X247000Y140705D03*
X255590Y165000D03*
X267000Y158168D03*
X251000D03*
X255590Y152000D03*
X262288Y152288D03*
Y165000D03*
X243000Y189000D03*
X278832Y-60168D03*
X296212Y-85788D03*
X296500Y21500D03*
X292000Y61712D03*
X293050Y77500D03*
X278900Y84000D03*
X301000Y86000D03*
X272500Y117500D03*
X298910Y94332D03*
X300000Y110000D03*
X289000Y111000D03*
X291000Y102000D03*
X281300Y99408D03*
X291500Y120500D03*
X272500Y112500D03*
Y107500D03*
X273327Y95450D03*
X288040Y93406D03*
X285500Y147320D03*
X272500Y127500D03*
X289000Y134000D03*
X272500Y122500D03*
X280307Y136000D03*
X277000Y189000D03*
X318212Y-85788D03*
X311668Y43000D03*
X323832Y71000D03*
X311168Y61712D03*
X326250Y84800D03*
X331000Y80000D03*
X309250Y84800D03*
X303000Y120500D03*
X319168Y131168D03*
X302000Y136000D03*
X319332Y173668D03*
X327000Y205000D03*
Y199750D03*
X325212Y226000D03*
X338000Y-37000D03*
X354000Y-41000D03*
X353000Y-57712D03*
X339892Y11000D03*
X332000Y20000D03*
X334000Y55000D03*
X344000D03*
X348000D03*
X340000Y107000D03*
X360000Y105000D03*
X351668Y161332D03*
X358668Y224000D03*
X344333Y232667D03*
X341344Y235656D03*
X339000Y212000D03*
X345000Y224700D03*
X336000Y226000D03*
X343000Y212000D03*
X347000D03*
X335000D03*
X345000Y228700D03*
X338000Y230000D03*
X332000Y226000D03*
X340000D03*
X379000Y-40000D03*
X382000Y-57712D03*
X365668Y59668D03*
Y50668D03*
X367000Y118288D03*
X368000Y171000D03*
X362000D03*
X365000Y174000D03*
X368000Y177000D03*
X380000Y283410D03*
X398000Y-89000D03*
X398832Y-52832D03*
X414000Y-31000D03*
X405000Y-48410D03*
X414000Y-35000D03*
X393000Y-48410D03*
X410000Y46000D03*
X410910Y134090D03*
X417000Y252000D03*
G54D20*
X375500Y-28500D03*
Y33500D03*
G54D12*
X-137500Y87500D03*
Y77500D03*
X-110000Y287500D03*
X-100000D03*
X-90000D03*
X-58000Y148000D03*
X-65000Y175000D03*
X-67500Y200000D03*
X-80000Y287500D03*
X-42500Y30000D03*
X-32500D03*
X-42500Y7500D03*
X-32500D03*
X-42000Y124000D03*
X-48000Y148000D03*
X-42000Y134000D03*
X-55000Y175000D03*
X-26500D03*
Y165000D03*
Y155000D03*
X-52500Y200000D03*
X-26500Y185000D03*
X-15000Y105000D03*
Y115000D03*
X2500Y287500D03*
X-25000D03*
X-15000D03*
X7500Y105000D03*
Y115000D03*
X12500Y287500D03*
X30000D03*
X55000Y-87500D03*
X45000D03*
X55000Y-52500D03*
Y-42500D03*
Y-32500D03*
X40000Y287500D03*
X50000D03*
X60000D03*
X85000Y-87500D03*
Y-70000D03*
X87500Y140000D03*
X90000Y270000D03*
X80000D03*
Y287500D03*
X90000D03*
X95000Y-87500D03*
X105000D03*
X115000D03*
X95000Y-70000D03*
X115000Y-27500D03*
Y-37500D03*
X97500Y140000D03*
X100000Y287500D03*
X110000D03*
X145000Y-87500D03*
Y-70000D03*
X125000Y-37500D03*
Y-27500D03*
X135000D03*
X145000D03*
X135000Y-37500D03*
X145000D03*
X150000Y270000D03*
X140000D03*
Y287500D03*
X150000D03*
X155000Y-87500D03*
X165000D03*
X175000D03*
X155000Y-70000D03*
Y-27500D03*
X165000D03*
X175000D03*
X155000Y-37500D03*
X165000D03*
X175000D03*
X160000Y287500D03*
X170000D03*
X185000Y-27500D03*
X195000D03*
X205000D03*
X185000Y-37500D03*
X195000D03*
X205000D03*
X198000Y151500D03*
X188000D03*
X192500Y265000D03*
Y285000D03*
Y275000D03*
X215000Y-27500D03*
X225000D03*
X235000D03*
X215000Y-37500D03*
X225000D03*
X235000D03*
X237500Y265000D03*
X215000D03*
X237500Y287500D03*
X215000Y285000D03*
Y275000D03*
X245000Y-27500D03*
Y-37500D03*
X257500Y78000D03*
Y68000D03*
X247500Y265000D03*
X257500D03*
X267500D03*
X247500Y287500D03*
X257500D03*
X267500D03*
X296000Y216500D03*
Y229500D03*
X277500Y265000D03*
Y287500D03*
X306000Y216500D03*
Y229500D03*
X332657Y248815D03*
X324783D03*
X314941D03*
X362500Y-15000D03*
X352500Y-10000D03*
X362500Y-5000D03*
X352500Y0D03*
X362500Y5000D03*
X352500Y10000D03*
X362500Y15000D03*
X352500Y20000D03*
X360000Y137500D03*
X336000Y142500D03*
Y162500D03*
X342500Y248815D03*
X375000Y137500D03*
X378815Y175000D03*
Y184843D03*
Y192717D03*
Y202559D03*
X380000Y232500D03*
Y247500D03*
X422500Y-56000D03*
Y-66000D03*
G54D21*
X378900Y89000D03*
Y78900D03*
X371000D03*
Y89000D03*
G54D13*
X-126100Y155000D03*
X-114300Y136500D03*
G54D22*
X406800Y-22400D03*
X400800Y-12400D03*
X406800Y17400D03*
X400800Y27400D03*
G54D23*
G01X-129000Y143000D02*
Y134000D01*
G01X-128000Y190000D02*
Y178000D01*
G01X-99000Y60000D02*
Y45000D01*
G54D14*
X-110000Y-42500D03*
Y-22500D03*
Y25000D03*
Y45000D03*
G54D15*
X-102500Y155000D03*
X387500Y-20000D03*
Y25000D03*
G54D16*
X2500Y-40000D03*
Y240000D03*
X272500Y-40000D03*
Y240000D03*
G54D17*
X302854Y259484D03*
X354587D03*
X389500Y60400D03*
Y107800D03*
X389484Y162913D03*
Y214646D03*
G54D18*
X347000Y-93000D03*
X375500D03*
G54D19*
X347000Y-73000D03*
X375500D03*
M02*
