G04 ================== begin FILE IDENTIFICATION RECORD ==================*
G04 Layout Name:  C:/Users/batydm/Documents/Courses/Quad/trunk/pcb/dev.brd*
G04 Film Name:    Soldermask_bottom*
G04 File Format:  Gerber RS274X*
G04 File Origin:  Cadence Allegro 16.2-s012*
G04 Origin Date:  Wed Mar 03 10:22:58 2010*
G04 *
G04 Layer:  VIA CLASS/SOLDERMASK_BOTTOM*
G04 Layer:  PIN/SOLDERMASK_BOTTOM*
G04 *
G04 Offset:    (0.0000 0.0000)*
G04 Mirror:    No*
G04 Mode:      Positive*
G04 Rotation:  0*
G04 FullContactRelief:  No*
G04 UndefLineWidth:     6.0000*
G04 ================== end FILE IDENTIFICATION RECORD ====================*
%FSLAX55Y55*MOIN*%
%IR0*IPPOS*OFA0.00000B0.00000*MIA0B0*SFA1.00000B1.00000*%
%ADD22C,.07*%
%ADD18C,.061*%
%ADD11C,.034*%
%ADD23C,.064*%
%ADD20C,.055*%
%ADD13C,.075*%
%ADD19R,.061X.061*%
%ADD12R,.075X.075*%
%ADD16C,.2*%
%ADD21C,.12*%
%ADD14C,.15*%
%ADD17C,.125*%
%ADD15C,.17*%
%ADD10C,.145*%
%LPD*%
G75*
G54D10*
X-140000Y-90000D03*
Y290000D03*
X140000Y70000D03*
Y130000D03*
X420000Y-90000D03*
Y290000D03*
G54D20*
X336000Y142500D03*
Y162500D03*
G54D11*
X-133000Y1000D03*
Y-3000D03*
X-129000Y1000D03*
Y-3000D03*
Y5000D03*
X-133000D03*
X-97500Y-60000D03*
X-88500Y-46200D03*
X-91332Y-26000D03*
X-90000Y23000D03*
X-88410Y165910D03*
X-75000Y-60000D03*
X-84000Y-30000D03*
X-82000Y-38288D03*
X-71000Y-46200D03*
X-60000Y-38288D03*
Y-18700D03*
X-77000Y-18000D03*
X-80000Y21000D03*
X-62000Y26500D03*
X-84000Y56000D03*
X-59000Y90000D03*
X-76000Y86332D03*
X-59000Y82000D03*
X-84832Y63832D03*
X-59000Y73700D03*
Y101000D03*
X-77000Y103000D03*
X-86000Y96168D03*
X-65000Y133788D03*
X-30000Y-60000D03*
X-48500Y-46200D03*
X-41000Y-31590D03*
X-40000Y-38288D03*
X-53832Y-27168D03*
X-41000Y65000D03*
X-40000Y78700D03*
X-46700Y76300D03*
X-32000Y91000D03*
X-47000Y81300D03*
X-41100Y85000D03*
X-40000Y75100D03*
X-44100Y67000D03*
X-51000Y102500D03*
X-31000Y133788D03*
X-53500Y222500D03*
Y232500D03*
Y227500D03*
X-38832Y222940D03*
X-37000Y250000D03*
X-46300Y257700D03*
Y242300D03*
X-40000Y244000D03*
Y256000D03*
X-7500Y-60000D03*
X-28000Y-46000D03*
X-25000Y-38288D03*
X-12500Y-57000D03*
X-27000Y-28000D03*
X-25300Y-18700D03*
Y57000D03*
X-24000Y80000D03*
Y62940D03*
X-10000Y90000D03*
X-5000D03*
X0D03*
Y93200D03*
X-10000D03*
X15000Y-60000D03*
X7000Y75000D03*
X4000Y77000D03*
X7000Y71000D03*
X4000Y73000D03*
Y266000D03*
X32500Y-38288D03*
X33000Y-46500D03*
X48832Y8832D03*
X52212Y95788D03*
X61000Y281000D03*
X69700Y-66000D03*
X73000Y-42000D03*
X78668Y-15668D03*
Y1668D03*
X71600Y2600D03*
X71332Y13668D03*
X83000Y79331D03*
X90000Y66000D03*
X86161Y63000D03*
X87000Y84000D03*
X79000Y116000D03*
X95000Y-60000D03*
X108668Y-7060D03*
X119000Y-10000D03*
X102288Y16712D03*
X103000Y24000D03*
X102200Y38800D03*
X103000Y51668D03*
X114980Y32020D03*
X99000Y55000D03*
X120000Y32000D03*
X117058Y51590D03*
X108668Y63668D03*
X121000Y62060D03*
X99000Y75200D03*
Y70000D03*
X107000Y115000D03*
X100000Y121168D03*
X115000Y114621D03*
X110000Y127000D03*
X113000Y122000D03*
X110000Y207000D03*
X104000D03*
X98000D03*
X97332Y258668D03*
X132832Y-71168D03*
X134000Y-10000D03*
X148000Y-2000D03*
X136168Y28000D03*
X142000Y16712D03*
X148668Y28000D03*
X126000Y14000D03*
X135000Y8000D03*
X130288Y16712D03*
X129000Y7000D03*
X148000D03*
X129288Y38288D03*
X140000Y117000D03*
X124000Y108000D03*
X127168Y157168D03*
X147000Y238288D03*
X130332Y226332D03*
X155000Y-59000D03*
X161332Y-56332D03*
X175000Y-46000D03*
X172540Y29460D03*
X166000Y28000D03*
X156000Y38800D03*
X155590Y60590D03*
X164860Y53860D03*
X169000Y48000D03*
X155590Y51590D03*
X168000Y91000D03*
X152000Y86000D03*
X155200Y115200D03*
X154000Y101000D03*
X181212Y136788D03*
X176000Y157168D03*
X162000Y214000D03*
X171750Y238750D03*
X152000Y214000D03*
X167000D03*
X157332Y258668D03*
X157000Y244000D03*
X186212Y-64212D03*
X187000Y-85788D03*
X207212D03*
X195000Y-6000D03*
X198000Y27000D03*
X183000Y16200D03*
X184288Y38288D03*
X182832Y104000D03*
X207000Y125000D03*
X191000D03*
X210832Y149000D03*
X203600Y208000D03*
Y212000D03*
X213832Y-60168D03*
X227212Y-85788D03*
X224000Y-54000D03*
X240000Y-43000D03*
X226000Y-49000D03*
X231500Y-58000D03*
X236000Y16200D03*
X226000Y6000D03*
X212000Y38288D03*
X225000Y47000D03*
X218000Y49000D03*
X222000Y54000D03*
X240000Y111000D03*
X213000Y110000D03*
X229000Y109500D03*
X235000Y147250D03*
X231000Y126000D03*
X217000Y136590D03*
X240000Y135307D03*
X235390Y126000D03*
X232250Y136000D03*
X240000Y128327D03*
X213000Y125000D03*
X230000Y181000D03*
X223000Y167168D03*
X230000Y177400D03*
Y184800D03*
Y188400D03*
Y192000D03*
Y222000D03*
X256332Y-60332D03*
X246500Y-58000D03*
X243000Y-49000D03*
X252500Y-18000D03*
X246500Y21500D03*
X265000Y59000D03*
X251750Y87750D03*
X268000D03*
X262500Y107500D03*
X267500Y117500D03*
X257500D03*
Y107500D03*
X252500Y112500D03*
X257500D03*
X252500Y107500D03*
Y117500D03*
X262500Y112500D03*
X267500D03*
X263484Y95450D03*
X267500Y107500D03*
X262500Y117500D03*
X247500Y95493D03*
X267500Y149950D03*
X257500Y127500D03*
X267500Y122500D03*
Y127500D03*
X252500Y122500D03*
X257500D03*
X262500D03*
X252500Y127500D03*
X262500D03*
X254000Y143000D03*
X257613Y145000D03*
X247000Y146000D03*
X265000Y139207D03*
X247000Y140705D03*
X255590Y165000D03*
X267000Y158168D03*
X251000D03*
X255590Y152000D03*
X262288Y152288D03*
Y165000D03*
X243000Y189000D03*
X278832Y-60168D03*
X296212Y-85788D03*
X296500Y21500D03*
X292000Y61712D03*
X293050Y77500D03*
X278900Y84000D03*
X301000Y86000D03*
X272500Y117500D03*
X298910Y94332D03*
X300000Y110000D03*
X289000Y111000D03*
X291000Y102000D03*
X281300Y99408D03*
X291500Y120500D03*
X272500Y112500D03*
Y107500D03*
X273327Y95450D03*
X288040Y93406D03*
X285500Y147320D03*
X272500Y127500D03*
X289000Y134000D03*
X272500Y122500D03*
X280307Y136000D03*
X277000Y189000D03*
X318212Y-85788D03*
X311668Y43000D03*
X323832Y71000D03*
X311168Y61712D03*
X326250Y84800D03*
X331000Y80000D03*
X309250Y84800D03*
X303000Y120500D03*
X319168Y131168D03*
X302000Y136000D03*
X319332Y173668D03*
X327000Y205000D03*
Y199750D03*
X325212Y226000D03*
X338000Y-37000D03*
X354000Y-41000D03*
X353000Y-57712D03*
X339892Y11000D03*
X332000Y20000D03*
X334000Y55000D03*
X344000D03*
X348000D03*
X340000Y107000D03*
X360000Y105000D03*
X351668Y161332D03*
X358668Y224000D03*
X344333Y232667D03*
X341344Y235656D03*
X339000Y212000D03*
X345000Y224700D03*
X336000Y226000D03*
X343000Y212000D03*
X347000D03*
X335000D03*
X345000Y228700D03*
X338000Y230000D03*
X332000Y226000D03*
X340000D03*
X379000Y-40000D03*
X382000Y-57712D03*
X365668Y59668D03*
Y50668D03*
X367000Y118288D03*
X368000Y171000D03*
X362000D03*
X365000Y174000D03*
X368000Y177000D03*
X380000Y283410D03*
X398000Y-89000D03*
X398832Y-52832D03*
X414000Y-31000D03*
X405000Y-48410D03*
X414000Y-35000D03*
X393000Y-48410D03*
X410000Y46000D03*
X410910Y134090D03*
X417000Y252000D03*
G54D21*
X375500Y-28500D03*
Y33500D03*
G54D12*
X-137500Y87500D03*
X-110000Y287500D03*
X-65000Y175000D03*
X-67500Y200000D03*
X-42500Y30000D03*
Y7500D03*
X-42000Y124000D03*
X-48000Y148000D03*
X-26500Y185000D03*
X-15000Y105000D03*
X2500Y287500D03*
X-25000D03*
X7500Y105000D03*
X30000Y287500D03*
X55000Y-87500D03*
Y-52500D03*
X85000Y-87500D03*
X87500Y140000D03*
X90000Y270000D03*
X80000Y287500D03*
X95000Y-70000D03*
X145000Y-87500D03*
X150000Y270000D03*
X140000Y287500D03*
X155000Y-70000D03*
X198000Y151500D03*
X192500Y285000D03*
X237500Y265000D03*
Y287500D03*
X215000Y285000D03*
X257500Y78000D03*
X306000Y216500D03*
Y229500D03*
X362500Y-15000D03*
X375000Y137500D03*
X380000Y247500D03*
X422500Y-56000D03*
G54D13*
X-137500Y77500D03*
X-110000Y-42500D03*
Y-22500D03*
Y25000D03*
Y45000D03*
X-100000Y287500D03*
X-90000D03*
X-58000Y148000D03*
X-80000Y287500D03*
X-32500Y30000D03*
Y7500D03*
X-42000Y134000D03*
X-55000Y175000D03*
X-26500D03*
Y165000D03*
Y155000D03*
X-52500Y200000D03*
X-15000Y115000D03*
Y287500D03*
X7500Y115000D03*
X12500Y287500D03*
X45000Y-87500D03*
X55000Y-42500D03*
Y-32500D03*
X40000Y287500D03*
X50000D03*
X60000D03*
X85000Y-70000D03*
X80000Y270000D03*
X90000Y287500D03*
X95000Y-87500D03*
X105000D03*
X115000D03*
Y-27500D03*
Y-37500D03*
X97500Y140000D03*
X100000Y287500D03*
X110000D03*
X145000Y-70000D03*
X125000Y-37500D03*
Y-27500D03*
X135000D03*
X145000D03*
X135000Y-37500D03*
X145000D03*
X140000Y270000D03*
X150000Y287500D03*
X155000Y-87500D03*
X165000D03*
X175000D03*
X155000Y-27500D03*
X165000D03*
X175000D03*
X155000Y-37500D03*
X165000D03*
X175000D03*
X160000Y287500D03*
X170000D03*
X185000Y-27500D03*
X195000D03*
X205000D03*
X185000Y-37500D03*
X195000D03*
X205000D03*
X188000Y151500D03*
X192500Y265000D03*
Y275000D03*
X215000Y-27500D03*
X225000D03*
X235000D03*
X215000Y-37500D03*
X225000D03*
X235000D03*
X215000Y265000D03*
Y275000D03*
X245000Y-27500D03*
Y-37500D03*
X257500Y68000D03*
X247500Y265000D03*
X257500D03*
X267500D03*
X247500Y287500D03*
X257500D03*
X267500D03*
X296000Y216500D03*
Y229500D03*
X277500Y265000D03*
Y287500D03*
X332657Y248815D03*
X324783D03*
X314941D03*
X352500Y-10000D03*
X362500Y-5000D03*
X352500Y0D03*
X362500Y5000D03*
X352500Y10000D03*
X362500Y15000D03*
X352500Y20000D03*
X360000Y137500D03*
X342500Y248815D03*
X378815Y175000D03*
Y184843D03*
Y192717D03*
Y202559D03*
X380000Y232500D03*
X422500Y-66000D03*
G54D22*
X378900Y89000D03*
Y78900D03*
X371000D03*
Y89000D03*
G54D14*
X-126100Y155000D03*
X-114300Y136500D03*
G54D23*
X406800Y-22400D03*
X400800Y-12400D03*
X406800Y17400D03*
X400800Y27400D03*
G54D15*
X-102500Y155000D03*
X387500Y-20000D03*
Y25000D03*
G54D16*
X2500Y-40000D03*
Y240000D03*
X272500Y-40000D03*
Y240000D03*
G54D17*
X302854Y259484D03*
X354587D03*
X389500Y60400D03*
Y107800D03*
X389484Y162913D03*
Y214646D03*
G54D18*
X347000Y-93000D03*
X375500D03*
G54D19*
X347000Y-73000D03*
X375500D03*
M02*
