M48
INCH
T01C.013
T02C.036
T03C.042
T04C.125
T05C.156
%
G90
T01
X03275Y-00425
X03351Y-00426
X01998Y00625
X01125Y00250
X-01225Y00775
X-01025Y01075
X-00150Y01325
X03975Y02125
X01425Y01050
X-01125Y-00050
X01050Y02725
X02050Y02725
X00200Y00000
X00300Y00125
X00375Y00176
X00225Y00075
X03125Y00425
X02075Y00700
X02075Y00625
X03150Y00275
X01700Y02775
X02150Y02775
X04025Y02375
X-01025Y02375
X-00350Y00525
X-00350Y00300
X-01100Y02475
T02
X-01425Y-00375
R03Y-00100
X-00750Y00975
X-00850Y00975
X-00925Y01825
X-00625Y01825
X-00925Y01150
X-00625Y01150
X-01425Y02675
R03Y-00100
X-00500Y01525
X-00500Y01425
X-00625Y01275
X-00925Y01275
X00000Y00000
X00100Y00000
X00000Y00100
X00100Y00100
X00000Y00200
X00100Y00200
X00000Y00300
X00100Y00300
X00000Y00400
X00100Y00400
X00000Y00500
X00100Y00500
X00000Y00600
X00100Y00600
X00000Y00700
X00100Y00700
X00000Y00800
X00100Y00800
X00000Y00900
X00100Y00900
X00000Y01000
X00100Y01000
X00000Y01100
X00100Y01100
X00000Y01200
X00100Y01200
X00000Y01300
X00100Y01300
X00425Y-00925
R03X00100
X01400Y02900
R03X00100
X02050Y02900
R02X00100
X00850Y02900
R02X00100
X01600Y01125
X02000Y01125
X01600Y00975
X02000Y00975
X01425Y00450
X01425Y00750
X01250Y00450
X01250Y00750
X01600Y00525
X02000Y00525
X02000Y00375
X01600Y00375
X02375Y00600
X02375Y00900
X02225Y00600
X02225Y00900
X03200Y00550
X03500Y00550
X03200Y00725
X03500Y00725
X04225Y-00375
R03Y-00100
X04225Y02675
R03Y-00100
T03
X-01425Y-00125
X-01425Y-00025
X-01425Y00850
X-01425Y00950
X-01425Y02025
X-01425Y02125
X02800Y-00900
X02900Y-00900
X03275Y-00900
X03375Y-00900
X04225Y02025
X04225Y02125
T04
X-01400Y-00900
X-01400Y02900
X04200Y02900
X04200Y-00900
T05
X-00025Y02425
X-00025Y-00275
X02775Y-00275
X02775Y02425
M30
